<?xml version="1.0" encoding="UTF-8"?><svg id="Layer_2" xmlns="http://www.w3.org/2000/svg" viewBox="0 0 137.09 39.29"><defs><style>.cls-1{fill:#0068b7;}.cls-2{fill:#b5b6b6;}.cls-3{fill:#c04091;}</style></defs><g id="_레이어_1"><g><path class="cls-2" d="M33.67,39.17h-2.19v-9.32h2.19v9.32Z"/><path class="cls-2" d="M44.31,39.17h-1.87l-3.78-5.47h-.07v5.47h-2.19v-9.32h1.89l3.75,5.47h.08v-5.47h2.19v9.32Z"/><path class="cls-2" d="M50.62,31.53c-.89,0-1.34,.39-1.35,.92-.01,.58,.55,.86,1.39,1.04l.81,.2c1.8,.39,2.84,1.29,2.84,2.78,0,1.76-1.38,2.82-3.7,2.83-2.32,0-3.82-1.05-3.86-3.19h2.11c.05,.9,.73,1.37,1.73,1.37,.93,0,1.48-.41,1.49-1-.01-.54-.49-.82-1.52-1.05l-.98-.23c-1.6-.37-2.58-1.17-2.58-2.57,0-1.73,1.52-2.88,3.63-2.88s3.53,1.17,3.55,2.9h-2.11c-.06-.68-.56-1.08-1.46-1.08Z"/><path class="cls-2" d="M56.46,29.85h7.83v1.79h-2.83v7.53h-2.18v-7.53h-2.83v-1.79Z"/><path class="cls-2" d="M68.9,39.17h-2.19v-9.32h2.19v9.32Z"/><path class="cls-2" d="M71.32,29.85h7.84v1.79h-2.83v7.53h-2.17v-7.53h-2.83v-1.79Z"/><path class="cls-2" d="M89.42,29.85v6.01c0,2.09-1.58,3.43-3.92,3.44-2.36,0-3.93-1.35-3.93-3.44v-6.01h2.19v5.83c0,.98,.7,1.7,1.74,1.7s1.73-.71,1.73-1.7v-5.83h2.2Z"/><path class="cls-2" d="M91.85,29.85h7.84v1.79h-2.83v7.53h-2.18v-7.53h-2.83v-1.79Z"/><path class="cls-2" d="M102.11,29.85h6.45v1.79h-4.26v1.97h3.93v1.79h-3.93v1.98h4.27v1.79h-6.46v-9.32Z"/><polygon class="cls-1" points="21.57 0 14.41 0 5.87 10.42 5.87 0 0 0 0 23.28 5.87 23.28 5.87 12.89 14.13 23.28 21.63 23.28 12.21 11.39 21.57 0"/><rect class="cls-1" x="48.86" y="0" width="6.08" height="23.28"/><path class="cls-1" d="M70.96,9.21h-6.13c-.82,0-1.42-.16-1.8-.46-.34-.28-.51-.71-.51-1.32,0-.81,.21-1.37,.63-1.71,.46-.37,1.24-.55,2.32-.55h12.07V0h-12.75c-2.83,0-4.95,.6-6.29,1.77-1.37,1.2-2.06,3.08-2.06,5.59,0,2.37,.66,4.14,1.98,5.27,1.29,1.11,3.29,1.67,5.97,1.67h5.47c1.31,0,1.9,.25,2.16,.45,.34,.27,.51,.76,.51,1.48s-.18,1.15-.55,1.41c-.3,.21-.96,.46-2.43,.46h-12.22v5.16h12.96c2.8,0,4.9-.59,6.25-1.75,1.38-1.18,2.07-3.02,2.07-5.47s-.61-4.18-1.82-5.26c-1.2-1.07-3.11-1.6-5.83-1.6Z"/><polygon class="cls-1" points="79.16 5.1 86.29 5.1 86.29 23.28 92.32 23.28 92.32 5.1 99.47 5.1 99.47 .03 79.16 .03 79.16 5.1"/><rect class="cls-3" x="131.01" y="0" width="6.08" height="23.28"/><polygon class="cls-3" points="117.62 0 116.38 0 113.95 0 104.02 23.28 110.52 23.28 117 7.86 121.31 18.12 115.06 18.12 112.9 23.28 123.47 23.28 124.49 23.28 129.97 23.28 120.04 0 117.62 0"/><polygon class="cls-1" points="35.86 0 34.62 0 32.2 0 22.27 23.28 28.77 23.28 35.24 7.86 39.55 18.12 33.3 18.12 31.14 23.28 41.71 23.28 42.73 23.28 48.22 23.28 38.29 0 35.86 0"/></g></g></svg>