<?xml version="1.0" encoding="UTF-8"?><svg id="Layer_2" xmlns="http://www.w3.org/2000/svg" xmlns:xlink="http://www.w3.org/1999/xlink" viewBox="0 0 84.51 43.42"><defs><style>.cls-1{fill:url(#linear-gradient);}.cls-2{fill:url(#linear-gradient-8);}.cls-3{fill:url(#linear-gradient-9);}.cls-4{fill:url(#linear-gradient-3);}.cls-5{fill:url(#linear-gradient-4);}.cls-6{fill:url(#linear-gradient-2);}.cls-7{fill:url(#linear-gradient-6);}.cls-8{fill:url(#linear-gradient-7);}.cls-9{fill:url(#linear-gradient-5);}</style><linearGradient id="linear-gradient" x1="79.74" y1="1.97" x2="-.04" y2="43.64" gradientUnits="userSpaceOnUse"><stop offset="0" stop-color="#0068b7"/><stop offset="1" stop-color="#c04091"/></linearGradient><linearGradient id="linear-gradient-2" x1="9.58" y1="18.87" x2="35.68" y2="6.75" gradientUnits="userSpaceOnUse"><stop offset="0" stop-color="#c04091"/><stop offset="1" stop-color="#d281b3"/></linearGradient><linearGradient id="linear-gradient-3" x1="6.24" y1="11.69" x2="32.34" y2="-.44" xlink:href="#linear-gradient-2"/><linearGradient id="linear-gradient-4" x1="7.87" y1="15.2" x2="33.97" y2="3.07" xlink:href="#linear-gradient-2"/><linearGradient id="linear-gradient-5" x1="10.1" y1="20" x2="36.2" y2="7.88" xlink:href="#linear-gradient-2"/><linearGradient id="linear-gradient-6" x1="49.73" y1="38.22" x2="79.02" y2="23.43" xlink:href="#linear-gradient-2"/><linearGradient id="linear-gradient-7" x1="53.08" y1="44.85" x2="82.37" y2="30.05" xlink:href="#linear-gradient-2"/><linearGradient id="linear-gradient-8" x1="51.15" y1="41.03" x2="80.44" y2="26.23" xlink:href="#linear-gradient-2"/><linearGradient id="linear-gradient-9" x1="48.68" y1="36.13" x2="77.97" y2="21.33" xlink:href="#linear-gradient-2"/></defs><g id="_레이어_1"><g><path class="cls-1" d="M81.12,13.25l-1.1-1.9c-.07-.12-6.64-11.18-18.9-11.35-.63,0-1.28,.01-1.94,.06-5.42,.42-10.19,2.85-14.22,6.42-.96,.85-1.87,1.73-2.77,2.63h0c-3.87,3.7-7.26,7.89-10.64,12.03-3.07,3.77-5.97,7.32-8.71,9.8-9.18,8.3-17.69,.75-18.05,.42l-1.63-1.49s-.16-.08-.24,0,0,.22,0,.22l1.1,1.89c.07,.12,6.63,11.18,18.9,11.35,.63,0,1.27-.01,1.94-.06,5.43-.42,10.19-2.85,14.23-6.43,.95-.85,1.87-1.73,2.77-2.63h0c3.87-3.71,7.26-7.9,10.64-12.04,3.07-3.76,5.97-7.32,8.71-9.8,9.18-8.31,17.69-.75,18.05-.42l1.63,1.49s.16,.08,.24,0c.08-.08,0-.22,0-.22Z"/><path class="cls-6" d="M14.81,19.98c-.05,4.09-3.41,7.36-7.5,7.31C3.22,27.23-.06,23.87,0,19.78c.06-4.09,3.42-7.36,7.51-7.31,4.09,.05,7.36,3.42,7.3,7.51Z"/><path class="cls-4" d="M23.25,6.4c-.04,3.02-2.52,5.44-5.54,5.39-3.02-.04-5.44-2.52-5.4-5.54,.04-3.02,2.52-5.44,5.54-5.39,3.02,.04,5.44,2.52,5.4,5.54Z"/><path class="cls-5" d="M33.78,4.68c-.02,1.76-1.47,3.17-3.23,3.15-1.76-.02-3.18-1.47-3.15-3.24,.03-1.76,1.48-3.17,3.24-3.15,1.76,.02,3.18,1.47,3.15,3.24Z"/><path class="cls-9" d="M39.92,6.96c-.01,.94-.79,1.69-1.72,1.67-.93-.01-1.68-.78-1.67-1.72,.01-.94,.78-1.69,1.72-1.67,.94,.01,1.69,.78,1.68,1.72Z"/><path class="cls-7" d="M69.69,24.3c.05-4.09,3.42-7.36,7.5-7.31,4.09,.05,7.36,3.42,7.31,7.51-.05,4.09-3.42,7.36-7.51,7.31-4.09-.06-7.36-3.42-7.3-7.51Z"/><path class="cls-8" d="M61.26,37.88c.04-3.02,2.52-5.43,5.54-5.39,3.02,.04,5.43,2.52,5.39,5.54-.04,3.02-2.52,5.44-5.54,5.4-3.02-.04-5.44-2.52-5.4-5.54Z"/><path class="cls-2" d="M50.72,39.59c.03-1.76,1.48-3.17,3.24-3.15,1.76,.02,3.17,1.47,3.15,3.24-.02,1.76-1.48,3.17-3.24,3.15-1.76-.03-3.18-1.47-3.15-3.24Z"/><path class="cls-3" d="M44.59,37.31c.01-.94,.78-1.68,1.72-1.67,.94,.01,1.68,.78,1.67,1.72-.01,.94-.79,1.69-1.72,1.67-.94-.01-1.69-.78-1.68-1.72Z"/></g></g></svg>