<?xml version="1.0" encoding="UTF-8"?><svg id="Layer_2" xmlns="http://www.w3.org/2000/svg" xmlns:xlink="http://www.w3.org/1999/xlink" viewBox="0 0 137.09 99.63"><defs><style>.cls-1{fill:url(#linear-gradient);}.cls-2{fill:#0068b7;}.cls-3{fill:#b5b6b6;}.cls-4{fill:#c04091;}.cls-5{fill:url(#linear-gradient-8);}.cls-6{fill:url(#linear-gradient-9);}.cls-7{fill:url(#linear-gradient-3);}.cls-8{fill:url(#linear-gradient-4);}.cls-9{fill:url(#linear-gradient-2);}.cls-10{fill:url(#linear-gradient-6);}.cls-11{fill:url(#linear-gradient-7);}.cls-12{fill:url(#linear-gradient-5);}</style><linearGradient id="linear-gradient" x1="106.27" y1="1.97" x2="26.49" y2="43.64" gradientUnits="userSpaceOnUse"><stop offset="0" stop-color="#0068b7"/><stop offset="1" stop-color="#c04091"/></linearGradient><linearGradient id="linear-gradient-2" x1="36.11" y1="18.87" x2="62.21" y2="6.75" gradientUnits="userSpaceOnUse"><stop offset="0" stop-color="#c04091"/><stop offset="1" stop-color="#d281b3"/></linearGradient><linearGradient id="linear-gradient-3" x1="32.77" y1="11.69" x2="58.88" y2="-.44" xlink:href="#linear-gradient-2"/><linearGradient id="linear-gradient-4" x1="34.41" y1="15.19" x2="60.51" y2="3.07" xlink:href="#linear-gradient-2"/><linearGradient id="linear-gradient-5" x1="36.64" y1="20" x2="62.74" y2="7.88" xlink:href="#linear-gradient-2"/><linearGradient id="linear-gradient-6" x1="76.27" y1="38.22" x2="105.56" y2="23.43" xlink:href="#linear-gradient-2"/><linearGradient id="linear-gradient-7" x1="79.62" y1="44.85" x2="108.91" y2="30.05" xlink:href="#linear-gradient-2"/><linearGradient id="linear-gradient-8" x1="77.69" y1="41.03" x2="106.98" y2="26.23" xlink:href="#linear-gradient-2"/><linearGradient id="linear-gradient-9" x1="75.21" y1="36.13" x2="104.5" y2="21.33" xlink:href="#linear-gradient-2"/></defs><g id="_레이어_1"><g><path class="cls-1" d="M107.65,13.25l-1.1-1.9c-.07-.12-6.64-11.18-18.9-11.35-.63,0-1.28,.01-1.94,.06-5.42,.42-10.19,2.85-14.22,6.42-.96,.85-1.87,1.73-2.77,2.63h0c-3.87,3.7-7.26,7.89-10.64,12.03-3.07,3.77-5.97,7.32-8.71,9.8-9.18,8.3-17.69,.75-18.05,.42l-1.63-1.49s-.16-.08-.24,0c-.08,.08,0,.22,0,.22l1.1,1.89c.07,.12,6.63,11.18,18.9,11.35,.63,0,1.27-.01,1.94-.06,5.43-.42,10.19-2.85,14.23-6.43,.95-.85,1.87-1.73,2.77-2.63h0c3.87-3.71,7.26-7.9,10.64-12.04,3.07-3.76,5.97-7.32,8.71-9.8,9.18-8.31,17.69-.75,18.05-.42l1.63,1.49s.16,.08,.24,0c.08-.08,0-.22,0-.22Z"/><path class="cls-9" d="M41.35,19.98c-.05,4.09-3.41,7.36-7.5,7.31-4.09-.06-7.36-3.42-7.31-7.51,.06-4.09,3.42-7.36,7.51-7.31,4.09,.05,7.36,3.41,7.3,7.51Z"/><path class="cls-7" d="M49.79,6.4c-.04,3.02-2.52,5.44-5.54,5.39-3.02-.04-5.44-2.52-5.4-5.54,.04-3.02,2.52-5.44,5.54-5.39,3.02,.04,5.44,2.52,5.4,5.54Z"/><path class="cls-8" d="M60.32,4.68c-.02,1.76-1.47,3.17-3.23,3.15-1.76-.02-3.18-1.47-3.15-3.24,.03-1.76,1.48-3.17,3.24-3.15,1.76,.02,3.18,1.47,3.15,3.24Z"/><path class="cls-12" d="M66.45,6.96c-.01,.94-.79,1.69-1.72,1.67-.93-.01-1.68-.78-1.67-1.72,.01-.94,.78-1.69,1.72-1.67,.94,.01,1.69,.78,1.68,1.72Z"/><path class="cls-10" d="M96.23,24.3c.05-4.09,3.42-7.36,7.5-7.31,4.09,.05,7.36,3.42,7.31,7.51-.05,4.09-3.42,7.36-7.51,7.31-4.09-.06-7.36-3.41-7.3-7.51Z"/><path class="cls-11" d="M87.79,37.88c.04-3.02,2.52-5.43,5.54-5.39,3.02,.04,5.43,2.52,5.39,5.54-.04,3.02-2.52,5.44-5.54,5.4-3.02-.04-5.44-2.52-5.4-5.54Z"/><path class="cls-5" d="M77.26,39.59c.03-1.76,1.48-3.17,3.24-3.15,1.76,.02,3.17,1.47,3.15,3.24-.02,1.76-1.48,3.17-3.24,3.15-1.76-.02-3.18-1.47-3.15-3.24Z"/><path class="cls-6" d="M71.13,37.31c.01-.94,.78-1.68,1.72-1.67,.94,.01,1.68,.78,1.67,1.72-.01,.94-.79,1.69-1.72,1.67-.94-.01-1.69-.78-1.68-1.72Z"/><path class="cls-3" d="M33.67,99.5h-2.19v-9.32h2.19v9.32Z"/><path class="cls-3" d="M44.31,99.5h-1.87l-3.78-5.47h-.07v5.47h-2.19v-9.32h1.89l3.75,5.47h.08v-5.47h2.19v9.32Z"/><path class="cls-3" d="M50.62,91.87c-.89,0-1.34,.39-1.35,.92-.01,.58,.55,.86,1.39,1.04l.81,.19c1.8,.39,2.84,1.29,2.84,2.78,0,1.76-1.38,2.82-3.7,2.83-2.32,0-3.82-1.05-3.86-3.19h2.11c.05,.9,.73,1.36,1.73,1.36,.93,0,1.48-.4,1.49-1-.01-.54-.49-.82-1.52-1.06l-.98-.23c-1.6-.37-2.58-1.17-2.58-2.57,0-1.73,1.52-2.88,3.63-2.88s3.53,1.17,3.55,2.9h-2.11c-.06-.68-.56-1.08-1.46-1.08Z"/><path class="cls-3" d="M56.46,90.18h7.83v1.79h-2.83v7.53h-2.18v-7.53h-2.83v-1.79Z"/><path class="cls-3" d="M68.9,99.5h-2.19v-9.32h2.19v9.32Z"/><path class="cls-3" d="M71.32,90.18h7.84v1.79h-2.83v7.53h-2.17v-7.53h-2.83v-1.79Z"/><path class="cls-3" d="M89.42,90.18v6.01c0,2.09-1.58,3.43-3.92,3.44-2.36,0-3.93-1.35-3.93-3.44v-6.01h2.19v5.83c0,.98,.7,1.7,1.74,1.7s1.73-.71,1.73-1.7v-5.83h2.2Z"/><path class="cls-3" d="M91.85,90.18h7.84v1.79h-2.83v7.53h-2.18v-7.53h-2.83v-1.79Z"/><path class="cls-3" d="M102.11,90.18h6.45v1.79h-4.26v1.97h3.93v1.79h-3.93v1.98h4.27v1.79h-6.46v-9.32Z"/><polygon class="cls-2" points="21.57 60.33 14.41 60.33 5.87 70.75 5.87 60.33 0 60.33 0 83.61 5.87 83.61 5.87 73.22 14.13 83.61 21.63 83.61 12.21 71.73 21.57 60.33"/><rect class="cls-2" x="48.86" y="60.34" width="6.08" height="23.28"/><path class="cls-2" d="M70.96,69.54h-6.13c-.82,0-1.42-.16-1.8-.46-.34-.28-.51-.71-.51-1.32,0-.81,.21-1.37,.63-1.71,.46-.37,1.24-.55,2.32-.55h12.07v-5.16h-12.75c-2.83,0-4.95,.6-6.29,1.77-1.37,1.2-2.06,3.08-2.06,5.59,0,2.37,.66,4.14,1.98,5.27,1.29,1.11,3.29,1.67,5.97,1.67h5.47c1.31,0,1.9,.25,2.16,.45,.34,.27,.51,.76,.51,1.48s-.18,1.15-.55,1.41c-.3,.21-.96,.46-2.43,.46h-12.22v5.16h12.96c2.8,0,4.9-.59,6.25-1.75,1.38-1.18,2.07-3.02,2.07-5.47s-.61-4.18-1.82-5.26c-1.2-1.07-3.11-1.6-5.83-1.6Z"/><polygon class="cls-2" points="79.16 65.44 86.29 65.44 86.29 83.61 92.32 83.61 92.32 65.44 99.47 65.44 99.47 60.37 79.16 60.37 79.16 65.44"/><rect class="cls-4" x="131.01" y="60.34" width="6.08" height="23.28"/><polygon class="cls-4" points="117.62 60.33 116.38 60.33 113.95 60.33 104.02 83.61 110.52 83.61 117 68.2 121.31 78.46 115.06 78.46 112.9 83.61 123.47 83.61 124.49 83.61 129.97 83.61 120.04 60.33 117.62 60.33"/><polygon class="cls-2" points="35.86 60.33 34.62 60.33 32.2 60.33 22.27 83.61 28.77 83.61 35.24 68.2 39.55 78.46 33.3 78.46 31.14 83.61 41.71 83.61 42.73 83.61 48.22 83.61 38.29 60.33 35.86 60.33"/></g></g></svg>